<?xml version="1.0" encoding="utf-8"?>
<!-- Generator: Adobe Illustrator 19.2.0, SVG Export Plug-In . SVG Version: 6.00 Build 0)  -->
<svg version="1.1" id="Layer_1" xmlns="http://www.w3.org/2000/svg" xmlns:xlink="http://www.w3.org/1999/xlink" x="0px" y="0px"
	 viewBox="0 0 960 960" style="enable-background:new 0 0 960 960;" xml:space="preserve">
<style type="text/css">
	.st0{fill:#F2F2F2;}
	.st1{fill:#0071BC;}
	.st2{fill:#2E3192;}
	.st3{fill:#662D91;}
	.st4{fill:#44186B;}
	.st5{fill:#009245;}
	.st6{fill:#006837;}
	.st7{fill:#F7931E;}
	.st8{fill:#C9721B;}
	.st9{fill:#C1272D;}
	.st10{fill:#AD212B;}
	.st11{fill:#E6E6E6;}
	.st12{fill:#4D4D4D;}
	.st13{fill:#1A1A1A;}
	.st14{fill:#93278F;}
	.st15{fill:#7A227A;}
</style>
<g>
	<g>
		<path class="st0" d="M530.7,615c-16.7-34.6-17.1-74.8-1.7-110c19-43.5,42.7-114.1,48.5-149.3c14-84.8-33-157.9-117.2-189.4
			c-130.5-48.7-267.8,26.2-308.6,146.9s18.6,245.5,96.4,345.8s222.3,152.2,283.7,58.3C556.2,680.2,543.4,641.3,530.7,615z
			 M407.8,710c-25.9-10.1-38.7-39.3-28.6-65.2s39.3-38.7,65.2-28.6c25.9,10.1,38.7,39.3,28.6,65.2
			C462.9,707.3,433.7,720.1,407.8,710z"/>
		
			<ellipse transform="matrix(0.3635 -0.9316 0.9316 0.3635 -216.4229 468.6035)" class="st1" cx="234.7" cy="392.7" rx="58.1" ry="58.1"/>
		<path class="st2" d="M233.5,444.1c-29.9-11.7-44.7-45.4-33-75.3c6.6-16.9,20.3-29,36.3-34.2c-24-0.9-47,13.3-56.3,36.9
			c-11.7,29.9,3.1,63.6,33,75.3c13,5.1,26.7,5.1,39,1.2C246.2,447.8,239.8,446.5,233.5,444.1z"/>
		
			<ellipse transform="matrix(0.3635 -0.9316 0.9316 0.3635 -319.8836 602.2258)" class="st3" cx="280.8" cy="535.2" rx="58.1" ry="58.1"/>
		<path class="st4" d="M275.3,575.1c-29.9-11.7-44.7-45.4-33-75.3c2-5.1,4.7-9.7,7.8-13.9c-10.3,6.4-18.7,16-23.5,28.2
			c-11.7,29.9,3.1,63.6,33,75.3c24.8,9.7,52.2,1.1,67.5-19.2C312.1,579.6,293.1,582,275.3,575.1z"/>
		
			<ellipse transform="matrix(0.3635 -0.9316 0.9316 0.3635 -46.7762 457.6682)" class="st5" cx="311.5" cy="263.1" rx="58.1" ry="58.1"/>
		<path class="st6" d="M308.7,312.1c-29.9-11.7-44.7-45.4-33-75.3c5.7-14.5,16.6-25.5,29.7-31.6c-20.9,2.2-39.9,15.7-48,36.6
			c-11.7,29.9,3.1,63.6,33,75.3c15.4,6,31.7,5,45.6-1.5C327,316.7,317.7,315.6,308.7,312.1z"/>
		
			<ellipse transform="matrix(0.3635 -0.9316 0.9316 0.3635 29.6342 611.5298)" class="st7" cx="462.3" cy="284.1" rx="58.1" ry="58.1"/>
		<path class="st8" d="M457.4,327.9c-29.9-11.7-44.7-45.4-33-75.3c3.4-8.7,8.7-16.1,15.2-22c-13.9,5.9-25.5,17.2-31.4,32.3
			c-11.7,29.9,3.1,63.6,33,75.3c21.2,8.3,44.3,3.2,60.1-11.1C487.8,333,472.1,333.7,457.4,327.9z"/>
		
			<ellipse transform="matrix(0.3635 -0.9316 0.9316 0.3635 -96.5664 695.6368)" class="st9" cx="460.8" cy="418.5" rx="58.1" ry="58.1"/>
		<path class="st10" d="M453.8,461.8c-29.9-11.7-44.7-45.4-33-75.3c2.8-7.3,7-13.6,12.1-18.9c-11.6,6.3-21.1,16.6-26.2,29.8
			c-11.7,29.9,3.1,63.6,33,75.3c22.6,8.8,47.4,2.5,63.2-14.1C488.3,466.5,470.5,468.3,453.8,461.8z"/>
	</g>
	<g>
		<path class="st0" d="M753.8,352.4l-25.5-8l-39.8,91.3c-5.9,13.5-12.5,30.7-19.3,50.1l78.7,24.8c5.5-19.7,9.9-37.6,12.8-52.1
			l19.7-97.6l-25.5-8L753.8,352.4z"/>
		<path class="st11" d="M681.6,452.5c-4,10-8.1,21.2-12.4,33.3l78.7,24.8c3.4-12.3,6.4-23.9,8.9-34.3L681.6,452.5z"/>
		<path class="st12" d="M736.4,283.5c20.2-45.3,85.2-66.3,85.2-66.3s-20.5,32.3-11.8,72c8,36.6-17.9,60.1-40.2,64.9
			C747.2,358.9,716.2,328.7,736.4,283.5z"/>
		<path class="st13" d="M787.7,327.9c-22.2,4.8-53.1-25.1-33.4-70.1c-7.3,7.5-13.6,16-17.9,25.6c-20.2,45.3,10.9,75.5,33.2,70.6
			c15.8-3.4,33.3-16.3,39.4-36.4C802.3,322.9,794.8,326.4,787.7,327.9z"/>
		<path class="st14" d="M669.2,485.7c-26.2,74.3-55.9,180.6-63,236.4l-3.5,27.4c-1.7,13-1,31.8,0.1,47.2c0.8,11.3,15,16,22.3,7.4
			c10-11.8,18.8-25,26.3-39.3l12.8-24.5c26.1-49.9,62.7-154,83.7-229.9L669.2,485.7z"/>
		<path class="st15" d="M635.7,746c-1.1-15.5-1.8-34.2-0.1-47.2l3.5-27.4c5.5-43,24.4-115.8,44.7-181l-14.6-4.6
			c-26.2,74.3-55.9,180.6-63,236.4l-3.5,27.4c-1.7,13-1,31.8,0.1,47.2c0.8,11.3,15,16,22.3,7.4c10-11.8,18.8-25,26.3-39.3l5.5-10.5
			C649.3,761.4,636.5,756.7,635.7,746z"/>
	</g>
</g>
</svg>
